
Release info:

General
Format                                   : Matroska
Format version                           : Version 2
File size                                : 693 MiB
Duration                                 : 1h 33mn
Overall bit rate mode                    : Variable
Overall bit rate                         : 1 033 Kbps


Video
ID                                       : 1
Format                                   : MPEG-4 Visual
Format profile                           : Advanced Simple@L5
Format settings, BVOP                    : Yes
Format settings, QPel                    : No
Format settings, GMC                     : No warppoints
Format settings, Matrix                  : Custom
Codec ID                                 : V_MS/VFW/FOURCC / XVID
Codec ID/Hint                            : XviD
Duration                                 : 1h 33mn
Bit rate                                 : 899 Kbps
Width                                    : 640 pixels
Height                                   : 368 pixels
Display aspect ratio                     : 1.739
Frame rate mode                          : Constant
Frame rate                               : 25.000 fps
Color space                              : YUV
Chroma subsampling                       : 4:2:0
Bit depth                                : 8 bits
Scan type                                : Progressive
Compression mode                         : Lossy
Bits/(Pixel*Frame)                       : 0.153
Stream size                              : 603 MiB (87%)
Writing library                          : XviD 64
Language                                 : English
Default                                  : Yes
Forced                                   : No

Audio
ID                                       : 2
Format                                   : MPEG Audio
Format version                           : Version 1
Format profile                           : Layer 3
Mode                                     : Joint stereo
Mode extension                           : MS Stereo
Muxing mode                              : Header stripping
Codec ID                                 : A_MPEG/L3
Codec ID/Hint                            : MP3
Duration                                 : 1h 33mn
Bit rate mode                            : Variable
Bit rate                                 : 113 Kbps
Nominal bit rate                         : 128 Kbps
Channel(s)                               : 2 channels
Sampling rate                            : 48.0 KHz
Compression mode                         : Lossy
Stream size                              : 75.7 MiB (11%)
Language                                 : English
Default                                  : Yes
Forced                                   : No

Source:
credit to original movie ripper PLAYNOW (Thanks)

IMDB Info:

A teenager wanders into Carmel, California, where he is soon introduced to the art-forgery community.

Director: Lawrence Roeck
Writer: Carlos De Los Rios (screenplay)
Stars: Josh Hutcherson, Hayden Panettiere and Lauren Bacall

Genres: Drama
 
http://www.imdb.com/title/tt1368858/

Screen Shot:
 
http://www.shotpix.com/images/31407531129215688737.png 
http://www.shotpix.com/images/38789166079904453459.png 
http://www.shotpix.com/images/02495772530786149788.png 
http://www.shotpix.com/images/20065099610591375597.png 
http://www.shotpix.com/images/15860731311456631235.png 
http://www.shotpix.com/images/64467812174193880884.png